<svg xmlns="http://www.w3.org/2000/svg" viewBox="0 0 64 64" [attr.width]="width" [attr.height]="height">
<path d="M6.3,3.5H4.8C2.1,3.5,0,5.6,0,8.2v1.5c0,2.6,2.1,4.7,4.8,4.8h1.5c2.6,0,4.7-2.1,4.8-4.8V8.2
	C11,5.6,8.9,3.5,6.3,3.5z M7.5,9.8C7.5,10.5,7,11,6.3,11H4.8c-0.7,0-1.2-0.6-1.2-1.2V8.2C3.5,7.6,4.1,7,4.8,7h1.5
	C7,7,7.5,7.6,7.5,8.2V9.8z M15.3,9c0-1.7,1.3-3,3-3H61c1.7,0,3,1.3,3,3c0,1.7-1.3,3-3,3H18.3C16.7,12,15.3,10.7,15.3,9z M6.3,18.8
	H4.8C2.1,18.8,0,21,0,23.6v1.5c0,2.6,2.1,4.7,4.8,4.7h1.5c2.6,0,4.7-2.1,4.8-4.7v-1.5C11,21,8.9,18.8,6.3,18.8z M7.5,25.1
	c0,0.7-0.6,1.2-1.2,1.2H4.8c-0.7,0-1.2-0.6-1.2-1.2v-1.5c0-0.7,0.6-1.2,1.2-1.2h1.5c0.7,0,1.2,0.6,1.2,1.2V25.1z M64,24.3
	c0,1.7-1.3,3-3,3H18.3c-1.7,0-3-1.3-3-3s1.3-3,3-3H61C62.7,21.3,64,22.7,64,24.3z M6.3,49.5H4.8c-2.6,0-4.7,2.1-4.8,4.8v1.5
	c0,2.6,2.1,4.7,4.8,4.8h1.5c2.6,0,4.7-2.1,4.8-4.8v-1.5C11,51.6,8.9,49.5,6.3,49.5z M7.5,55.8C7.5,56.4,7,57,6.3,57H4.8
	c-0.7,0-1.2-0.6-1.2-1.2v-1.5c0-0.7,0.6-1.2,1.2-1.2h1.5c0.7,0,1.2,0.6,1.2,1.2V55.8z M53.6,55c0,1.7-1.3,3-3,3H18.3
	c-1.7,0-3-1.3-3-3c0-1.7,1.3-3,3-3h32.2C52.2,52,53.6,53.3,53.6,55z M6.3,34.2H4.8c-2.6,0-4.7,2.1-4.8,4.8v1.5
	c0,2.6,2.1,4.7,4.8,4.8h1.5c2.6,0,4.7-2.1,4.8-4.8v-1.5C11,36.3,8.9,34.2,6.3,34.2z M7.5,40.4c0,0.7-0.6,1.2-1.2,1.2H4.8
	c-0.7,0-1.2-0.6-1.2-1.2v-1.5c0-0.7,0.6-1.2,1.2-1.2h1.5c0.7,0,1.2,0.6,1.2,1.2V40.4z M64,39.7c0,1.7-1.3,3-3,3H18.3
	c-1.7,0-3-1.3-3-3c0-1.7,1.3-3,3-3H61C62.7,36.7,64,38,64,39.7z"/>
</svg>
