<svg xmlns="http://www.w3.org/2000/svg" viewBox="0 0 58.9 64" [attr.width]="width" [attr.height]="height">
<path d="M19.3,7.3c0.5,0,0.9,0.2,1.2,0.4c0.8,0.6,1.3,1.9,1.1,2.9c-0.1,0.6-0.4,1.3-1.3,1.7C11,16.4,5.2,24.9,5.2,34.8
	c0,13.3,10.9,24.1,24.3,24.1c13.3,0,24.1-10.8,24.1-24.1c0-9.9-5.7-18.5-15-22.4c-0.9-0.4-1.1-1.1-1.2-1.7c-0.1-1.1,0.4-2.4,1.2-3
	c0.6-0.4,1.2-0.5,2-0.2c11.3,4.8,18.3,15.2,18.3,27.2C58.8,50.9,45.6,64,29.3,64c-7.9,0-15.3-3.1-20.8-8.7C3,49.7,0,42.3,0.1,34.6
	c0-12,7-22.4,18.3-27C18.7,7.4,19,7.3,19.3,7.3z M29.5,34.6c1,0,2.6-0.5,2.6-2.1V2.2C32,0.5,30.4,0,29.5,0c-1,0-2.6,0.5-2.6,2.2
	v30.2C26.9,34.1,28.5,34.6,29.5,34.6z"/>
</svg>
