<svg xmlns="http://www.w3.org/2000/svg" viewBox="0 0 64 64">
<path d="M63.8,33c-0.2,0.3-0.4,0.6-0.6,0.8L55.1,42c-0.5,0.5-1.2,0.8-1.9,0.8s-1.4-0.3-1.9-0.8c-1-1.1-1-2.8,0-3.9l3.5-3.5H31.9
	c-1.5,0-2.7-1.2-2.7-2.7s1.2-2.7,2.6-2.6h22.8l-3.5-3.5c-1-1.1-1-2.8,0-3.9c1.1-1,2.8-1,3.9,0l8.1,8.1c0.4,0.3,0.6,0.8,0.7,1.2
	c0.1,0.1,0.1,0.2,0.1,0.3C64,32.1,64,32.6,63.8,33z M44.5,46.6c-4.2,4.9-10.4,7.7-16.8,7.7c-12.3,0-22.3-10-22.3-22.3
	c0-12.3,10-22.3,22.3-22.3c5.9,0,11.5,2.3,15.7,6.5c1.1,1.1,2.8,1.1,3.9,0c1.1-1.1,1.1-2.8,0-3.9c-5.2-5.2-12.2-8.1-19.6-8.1
	C12.4,4.3,0,16.7,0,32c0,15.3,12.4,27.7,27.7,27.7c8,0,15.7-3.5,20.9-9.5c1-1.1,0.9-2.9-0.3-3.9C47.3,45.3,45.5,45.5,44.5,46.6z"/>
</svg>
