<svg xmlns="http://www.w3.org/2000/svg" viewBox="0 0 64 64" [attr.width]="width" [attr.height]="height">
<path d="M64,32.1c0,0.1,0,0.2,0,0.2c-0.1,2-1.8,3.6-3.8,3.5H30.8l4.9,4.9c1.4,1.5,1.4,3.8,0,5.3c-1.5,1.6-3.9,1.7-5.5,0.2L18.6,34.7
	c-0.5-0.5-0.9-1.1-1-1.7c-0.1-0.1-0.2-0.3-0.1-0.4c-0.2-0.7-0.1-1.4,0.1-2c0.3-0.4,0.5-0.8,0.9-1.2l11.6-11.6c0,0,0,0,0,0
	c1.5-1.5,4-1.5,5.5,0c1.5,1.6,1.5,4,0,5.5l-4.9,4.9h29.4c0,0,0,0,0,0C62.3,28.2,64,29.9,64,32.1z M3.9,1C1.7,1,0,2.7,0,4.8v54.3
	C0,61.3,1.7,63,3.9,63s3.9-1.7,3.9-3.9V4.8C7.8,2.7,6,1,3.9,1z"/>
</svg>
