<?xml version="1.0" encoding="utf-8"?>
<!DOCTYPE svg PUBLIC "-//W3C//DTD SVG 20010904//EN" "http://www.w3.org/TR/2001/REC-SVG-20010904/DTD/svg10.dtd">
<svg version="1.0" xmlns="http://www.w3.org/2000/svg" width="394px" height="382px" viewBox="0 0 394 382" preserveAspectRatio="xMidYMid meet">
 <g fill="none" stroke="#ffffff" stroke-width="1">
  <path d="M0 191 l0 -191 197 0 197 0 0 191 0 191 -197 0 -197 0 0 -191z m104.8 168 l0.3 -8.5 -9 -1.3 c-24.6 -3.3 -45.3 -18.1 -55.5 -39.6 -7.9 -16.4 -7.6 -12.9 -7.6 -99.1 l0 -76.5 -9 0 -9 0 0 73.3 c0 46.3 0.4 75.6 1.1 79.7 6.5 40 38.1 72.2 78.2 79.5 10.6 2 10.2 2.3 10.5 -7.5z m190.7 6.6 c28.1 -7.4 53.2 -28.1 64.6 -53.2 3.6 -7.9 7.4 -21.1 8.3 -28.6 l0.7 -5.8 -8.9 0 -8.9 0 -0.7 7.2 c-1.3 14.5 -7.5 28.6 -17.7 40.3 -6.6 7.5 -13.1 12.5 -22.4 17 -14.7 7.3 -10.3 6.9 -97.2 7.3 l-78.3 0.3 0 8.3 c0 4.5 0.3 8.6 0.7 9 0.4 0.4 34.9 0.5 76.8 0.3 69.7 -0.3 76.6 -0.5 83 -2.1z m-118.5 -54.6 l0 -9 -9 0 -9 0 0 9 0 9 9 0 9 0 0 -9z m0 -48 l0 -9 -9 0 -9 0 0 9 0 9 9 0 9 0 0 -9z m48 0 l0 -9 -9 0 -9 0 0 9 0 9 9 0 9 0 0 -9z m143.8 -92.2 c-0.4 -77.2 -0.4 -77.3 -2.7 -85.3 -10.6 -37.2 -39.9 -63.8 -77.5 -70.4 -10.3 -1.9 -9.7 -2.3 -9.4 7.7 l0.3 8.7 7.5 0.8 c25.2 2.7 49.2 20.6 58.5 43.5 5.4 13.3 5.5 15 5.5 96 0 41.2 0.3 75.2 0.7 75.5 0.3 0.4 4.4 0.7 9 0.7 l8.4 0 -0.3 -77.2z m-239.8 44.2 l0 -9 -9 0 -9 0 0 8.3 c0 4.6 0.3 8.7 0.7 9 0.3 0.4 4.4 0.7 9 0.7 l8.3 0 0 -9z m96 -24 l0 -33 -33 0 -33 0 0 33 0 33 33 0 33 0 0 -33z m48 24 l0 -9 -9 0 -9 0 0 8.3 c0 4.6 0.3 8.7 0.7 9 0.3 0.4 4.4 0.7 9 0.7 l8.3 0 0 -9z m48 0 l0 -9 -9 0 -9 0 0 8.3 c0 4.6 0.3 8.7 0.7 9 0.3 0.4 4.4 0.7 9 0.7 l8.3 0 0 -9z m-240.2 -48.2 l0.3 -8.8 -9.1 0 -9 0 0 8.3 c0 4.6 0.3 8.7 0.7 9.1 0.4 0.4 4.3 0.5 8.8 0.4 l8 -0.3 0.3 -8.7z m48.2 0.2 l0 -9 -9 0 -9 0 0 9 0 9 9 0 9 0 0 -9z m144 0 l0 -9 -9 0 -9 0 0 9 0 9 9 0 9 0 0 -9z m-96 -48 l0 -9 -9 0 -9 0 0 8.3 c0 4.6 0.3 8.7 0.7 9 0.3 0.4 4.4 0.7 9 0.7 l8.3 0 0 -9z m47.8 -0.2 l0.3 -8.8 -9.1 0 -9 0 0 9 0 9.1 8.8 -0.3 8.7 -0.3 0.3 -8.7z m-191.5 -22.3 c2.8 -25.7 17.4 -46.2 41.2 -57.8 12.7 -6.2 9.8 -6 95.5 -6.6 l78.5 -0.6 0.3 -8.8 0.3 -8.8 -77.3 0.4 c-76.6 0.3 -77.4 0.3 -85.3 2.5 -38.2 10.8 -66.2 42.9 -71 81.6 l-0.7 5.7 8.8 -0.3 8.9 -0.3 0.8 -7z m191.7 -25.5 l0 -9 -9 0 -9 0 0 8.3 c0 4.6 0.3 8.7 0.7 9 0.3 0.4 4.4 0.7 9 0.7 l8.3 0 0 -9z"/>
 </g>
 <g fill="#ffffff">
  <path d="M91.3 369.5 c-40.2 -7.4 -71.7 -39.5 -78.2 -79.5 -0.7 -4.1 -1.1 -34.3 -1.1 -82.7 l0 -76.3 12 0 12 0 0 76.5 c0 86.2 -0.3 82.7 7.6 99.1 10.2 21.5 30.9 36.3 55.5 39.6 l9 1.3 -0.3 11.5 -0.3 11.5 -4.5 0.2 c-2.5 0.1 -7.7 -0.4 -11.7 -1.2z"/>
  <path d="M132.7 370.4 c-0.4 -0.4 -0.7 -5.8 -0.7 -12 l0 -11.3 78.3 -0.3 c86.9 -0.4 82.5 0 97.2 -7.3 22.5 -11 37.9 -33 40.1 -57.3 l0.7 -7.2 12 0 12 0 -0.6 8.4 c-0.8 9.4 -4.3 22.5 -8.6 32 -9.1 20.2 -28.5 38.8 -49.7 47.9 -17.1 7.3 -13 7 -100.9 7.4 -43.5 0.2 -79.4 0.1 -79.8 -0.3z"/>
  <path d="M156 311 l0 -12 12 0 12 0 0 12 0 12 -12 0 -12 0 0 -12z"/>
  <path d="M156 263 l0 -12 12 0 12 0 0 12 0 12 -12 0 -12 0 0 -12z"/>
  <path d="M204 263 l0 -12 12 0 12 0 0 12 0 12 -12 0 -12 0 0 -12z"/>
  <path d="M348.7 250.3 c-0.4 -0.3 -0.7 -34.3 -0.7 -75.5 0 -81 -0.1 -82.7 -5.5 -96 -9.3 -22.9 -33.3 -40.8 -58.5 -43.5 l-7.5 -0.8 -0.3 -11.7 -0.3 -11.8 4.9 0 c6.7 0 15.2 1.6 24.7 4.7 31.3 10.1 54.3 34.2 63.6 66.8 l2.3 8 0.4 80.3 0.3 80.2 -11.4 0 c-6.2 0 -11.7 -0.3 -12 -0.7z"/>
  <path d="M108.7 226.3 c-0.4 -0.3 -0.7 -5.7 -0.7 -12 l0 -11.3 12 0 12 0 0 12 0 12 -11.3 0 c-6.3 0 -11.7 -0.3 -12 -0.7z"/>
  <path d="M156 191 l0 -36 36 0 36 0 0 36 0 36 -36 0 -36 0 0 -36z"/>
  <path d="M252.7 226.3 c-0.4 -0.3 -0.7 -5.7 -0.7 -12 l0 -11.3 12 0 12 0 0 12 0 12 -11.3 0 c-6.3 0 -11.7 -0.3 -12 -0.7z"/>
  <path d="M300.7 226.3 c-0.4 -0.3 -0.7 -5.7 -0.7 -12 l0 -11.3 12 0 12 0 0 12 0 12 -11.3 0 c-6.3 0 -11.7 -0.3 -12 -0.7z"/>
  <path d="M60.7 178.4 c-0.4 -0.4 -0.7 -5.8 -0.7 -12.1 l0 -11.3 12 0 12.1 0 -0.3 11.8 -0.3 11.7 -11.1 0.3 c-6 0.1 -11.3 -0.1 -11.7 -0.4z"/>
  <path d="M108 167 l0 -12 12 0 12 0 0 12 0 12 -12 0 -12 0 0 -12z"/>
  <path d="M252 167 l0 -12 12 0 12 0 0 12 0 12 -12 0 -12 0 0 -12z"/>
  <path d="M156.7 130.3 c-0.4 -0.3 -0.7 -5.7 -0.7 -12 l0 -11.3 12 0 12 0 0 12 0 12 -11.3 0 c-6.3 0 -11.7 -0.3 -12 -0.7z"/>
  <path d="M204 119 l0 -12 12 0 12.1 0 -0.3 11.8 -0.3 11.7 -11.7 0.3 -11.8 0.3 0 -12.1z"/>
  <path d="M12.3 98.8 c2.4 -33.2 22.6 -62.6 53.2 -77.8 5.5 -2.7 13.6 -5.9 18 -7.2 7.9 -2.2 8.6 -2.2 88.3 -2.5 l80.3 -0.4 -0.3 11.8 -0.3 11.8 -78.5 0.6 c-85.7 0.6 -82.8 0.4 -95.5 6.6 -23.8 11.6 -38.4 32.1 -41.2 57.8 l-0.8 7 -11.9 0.3 -11.9 0.3 0.6 -8.3z"/>
  <path d="M204.7 82.3 c-0.4 -0.3 -0.7 -5.7 -0.7 -12 l0 -11.3 12 0 12 0 0 12 0 12 -11.3 0 c-6.3 0 -11.7 -0.3 -12 -0.7z"/>
 </g>
</svg>