<svg xmlns="http://www.w3.org/2000/svg" viewBox="0 0 62 64">
<path d="M62,32c0,17.6-14.4,32-32,32C16.7,64,5,56,0.2,43.6c-0.5-1.4,0.1-2.9,1.5-3.5c1.4-0.5,2.9,0.1,3.5,1.5
	c4,10.3,13.8,17,24.8,17c14.7,0,26.7-12,26.7-26.7S44.7,5.3,30,5.3c-11.1,0-20.8,6.7-24.8,17c-0.5,1.4-2.1,2.1-3.5,1.5
	c-1.4-0.5-2.1-2.1-1.5-3.5C5,8,16.7,0,30,0C47.6,0,62,14.4,62,32z M14,32c0,1.5,1.2,2.7,2.7,2.7h20.2l-3.4,3.4c-1,1-1,2.7,0,3.8
	c0.5,0.5,1.2,0.8,1.9,0.8c0.7,0,1.4-0.3,1.9-0.8l8-8c0.2-0.2,0.4-0.5,0.6-0.8c0,0,0,0,0,0c0,0,0,0,0,0c0.2-0.4,0.2-0.9,0.1-1.4
	c0-0.1,0-0.2-0.1-0.3c-0.1-0.4-0.3-0.9-0.7-1.2l-8-8c-1-1-2.7-1-3.8,0c-1,1-1,2.7,0,3.8l3.4,3.4H16.6C15.2,29.3,14,30.5,14,32z"/>
</svg>
