<svg xmlns="http://www.w3.org/2000/svg" viewBox="0 0 64 64" [attr.width]="width" [attr.height]="height">
<path d="M63.336,7.728,56.253.686a2.351,2.351,0,0,0-3.319,0L28.259,25.361A3.63,3.63,0,0,0,27.212,27.5L24.425,36.62a2.339,2.339,0,0,0,.645,2.25,2.367,2.367,0,0,0,1.681.707h.419l9.31-2.762a3.885,3.885,0,0,0,2.142-1.046L63.3,11.094A2.393,2.393,0,0,0,64,9.338,2.98,2.98,0,0,0,63.336,7.728Zm-33.125,26,.226-.763.547.536Zm5.667-1.99L32.2,28.062,49.474,10.785,53.158,14.5Zm20.6-20.558L52.8,7.466l1.774-1.775,3.684,3.718Zm1.647,17.567A29.331,29.331,0,1,1,34.656,5.769a3.159,3.159,0,1,1-1.133,6.215A23.038,23.038,0,1,0,52.4,34.647a23.329,23.329,0,0,0-.465-4.636,3.158,3.158,0,1,1,6.19-1.26Z"/>
</svg>
