<svg xmlns="http://www.w3.org/2000/svg" viewBox="0 0 64 51" [attr.width]="width" [attr.height]="height">
<path d="M61.5,34.3H51.2l-0.2,0c-0.5-0.1-0.8-0.2-1.1-0.5l-0.1-0.1c0,0,0-0.1-0.1-0.1v-0.5h-0.4l-4.1-10.4l-9.2,26.7
	c-0.3,0.9-1.3,1.6-2.3,1.6h-0.2c-1,0-1.9-0.8-2.1-2.1l-9.3-37.6L15,32.5l0,0.1c-0.1,0.1-0.1,0.1-0.1,0.2c-0.1,0.1-0.2,0.2-0.2,0.3
	c-0.1,0.1-0.2,0.3-0.2,0.4c0,0,0,0,0,0l-0.1,0.1c-0.1,0-0.1,0.1-0.1,0.1c-0.1,0-0.2,0.1-0.3,0.2c-0.1,0-0.2,0.1-0.3,0.2l-0.2,0
	l-0.1,0.2l-0.2,0l-0.1,0.1H2.5c-1.4,0-2.5-1.1-2.5-2.5c0-1.4,1.1-2.5,2.5-2.5h8.1l9.1-27.7c0.4-1.1,1.4-1.7,2.6-1.7
	c1.1,0,2.1,0.8,2.3,1.9l9.5,37.9l9-25c0.2-0.8,1.3-1.6,2.2-1.6c0.9,0,1.9,0.6,2.4,1.5l5.9,14.9h8.1c0.7,0,2.3,0.2,2.3,2
	C64,33.2,62.9,34.3,61.5,34.3z"/>
</svg>
