<svg xmlns="http://www.w3.org/2000/svg" viewBox="0 0 59.9 64" [attr.width]="width" [attr.height]="height">
<path d="M43.4,45c0.7,1.8,1.1,3.7,1,5.6v10.9c0,1.3-1.1,2.4-2.4,2.4s-2.4-1.1-2.4-2.4V50.7c0-3-1-4.9-1.8-5.5c-0.5-0.4-0.9-1-1-1.7
	c-0.1-1.3,0.8-2.5,2.1-2.6c8-1,16.2-3.8,16.2-17.3c-0.1-3.3-1.3-6.5-3.6-9c-0.6-0.6-0.7-1.5-0.5-2.3c0.8-2.4,0.9-5,0.2-7.4
	c-2.8,0.7-5.5,2-7.8,3.8C42.8,9,42,9.1,41.3,8.9c-3.1-0.9-6.2-1.4-9.4-1.3c-3.2-0.1-6.4,0.3-9.5,1.3c-0.7,0.2-1.5,0.1-2.1-0.3
	c-2.4-1.8-5.2-3.2-8.1-3.8c-0.7,2.4-0.7,4.9,0.2,7.3c0.3,0.9,0.1,1.9-0.6,2.6c-2.4,2.3-3.6,5.5-3.5,8.9c0,13.6,7.8,16.4,16.2,17.3
	c0.6,0.1,1.1,0.3,1.5,0.7c0.9,1,0.9,2.5-0.1,3.4c-1,1-1.6,2.4-1.8,3.8v12.9c0,1.3-1.1,2.4-2.4,2.4c-1.3,0-2.4-1.1-2.4-2.4v-4
	c-8.7,0.6-12.6-4.4-13.6-7.5c-0.9-1.6-2.2-2.7-3.9-3.4c-1.3-0.4-1.9-1.8-1.5-3.1c0.4-1.3,1.8-1.9,3.1-1.5c3,1.1,5.5,3.3,6.9,6.1
	c0,0.1,0.1,0.2,0.1,0.3c0.2,0.5,1.7,4.7,9,4.1v-4.2c0-0.1,0-0.2,0-0.3c0.1-1.1,0.4-2.1,0.8-3.1c-8-1.6-16.7-6.2-16.7-21.5
	c-0.1-4.1,1.3-8.1,3.9-11.2C6.4,8.8,6.7,5,8,1.6c0.3-0.7,0.8-1.2,1.5-1.4c0.8-0.2,4.8-1,12.4,3.9c3.2-0.8,6.5-1.2,9.8-1.2
	c3.3-0.1,6.6,0.3,9.8,1.2c7.4-4.8,11.1-4.2,12.1-3.9c0.7,0.2,1.2,0.7,1.5,1.4C56.5,5,56.8,8.8,56,12.4c2.5,3.1,3.9,7.1,4,11.1
	C59.9,39.4,49.9,43.7,43.4,45z"/>
</svg>
