<svg xmlns="http://www.w3.org/2000/svg" viewBox="0 0 57.5 64" [attr.width]="width" [attr.height]="height">
<path d="M43.2,8.7c0,0.6-0.3,1.2-0.9,1.5l-11.2,7c-0.5,0.3-1.1,0.3-1.7,0c-0.6-0.3-1-0.9-1-1.5v-4.6l-0.3,0C16.2,11.4,5.9,21,4.9,33
	C4.2,40,6.8,47,11.8,52c5.1,5.1,12.1,7.6,19.3,7c11.2-1.1,20.5-10.4,21.5-21.6c0.5-5.8-1-11.4-4.3-16.1c-0.7-1.1-0.4-2.8,0.6-3.5
	c0.5-0.3,1.1-0.5,1.7-0.4c0.6,0.1,1.2,0.5,1.6,1c3.8,5.3,5.6,11.6,5.3,18.2C56.9,51.3,44.8,63.3,30.1,64c-8.6,0.3-16.8-3.1-22.6-9.4
	c-5.7-6.2-8.4-14.6-7.4-23C1.9,17.2,13.8,6.5,28.3,6.3l0.2,0V1.8c0-0.7,0.3-1.2,0.9-1.5C29.7,0.1,30,0,30.3,0c0.3,0,0.6,0.1,0.9,0.3
	l11.2,7C42.9,7.5,43.2,8.1,43.2,8.7z"/>
</svg>
