<svg xmlns="http://www.w3.org/2000/svg" viewBox="0 0 64 64" [attr.width]="width" [attr.height]="height">
<path d="M38.9,4.5c-0.5-0.5-0.7-1.1-0.8-2c0-0.6,0.3-1.3,0.7-1.8l0.1,0c0.6-0.3,1.4-0.6,2.1-0.6h20.3c0.7,0,1.4,0.3,1.9,0.8
	c0.4,0.4,0.7,1.3,0.7,2V23c0,0.7-0.3,1.4-0.8,2c-0.5,0.5-1.1,0.7-2,0.8c-0.7,0-1.4-0.3-2-0.8c-0.5-0.5-0.8-1.2-0.8-2V9.3L29.2,38.5
	c-0.5,0.5-1.1,0.7-2,0.8c-0.7,0-1.4-0.3-2-0.9c-0.4-0.4-0.8-1.2-0.8-1.9c0-0.7,0.3-1.4,0.8-1.9L54.5,5.3H40.8
	C40.1,5.3,39.4,5,38.9,4.5z M63.9,39.7V38c0-0.7-0.3-1.4-0.8-1.9c-0.5-0.5-1.3-0.8-1.9-0.8c-0.5,0-1.3,0.1-1.9,0.8
	c-0.3,0.4-0.8,1.1-0.8,2v18.1c0,0.2-0.1,0.4-0.1,0.5v0.3l-0.2,0.2c-0.1,0.1-0.1,0.2-0.3,0.4l-0.3,0.3c-0.1,0.1-0.3,0.2-0.4,0.3
	l-0.2,0.2h-0.3c-0.1,0-0.3,0.1-0.6,0.1H7.7c-0.2,0-0.4-0.1-0.5-0.1H6.9l-0.2-0.2c-0.1-0.1-0.2-0.1-0.4-0.3L6,57.6
	c-0.1-0.1-0.2-0.3-0.3-0.4l-0.2-0.2v-0.3c0-0.1-0.1-0.3-0.1-0.6V7.8c0-0.2,0.1-0.4,0.1-0.5V6.3l0.6,0l0.2-0.2C6.4,6,6.7,5.7,7.1,5.6
	c0.1-0.1,0.3-0.1,0.6-0.1h18c0.7,0,1.4-0.3,2-0.8c0.5-0.5,0.8-1.3,0.8-1.9c0-0.5-0.1-1.3-0.8-1.9c-0.5-0.5-1.2-0.8-1.9-0.8H8
	c-1.5,0-2.8,0.4-4,1.1C3.4,1.5,2.7,2,2.1,2.6c-0.6,0.7-1,1.3-1.2,1.8C0.8,4.7,0.7,5,0.6,5.2C0.4,5.5,0.3,5.7,0.3,5.9l0,0.1
	c-0.1,0.3-0.1,0.7-0.2,1c0,0.2,0,0.4-0.1,0.6v45.8c0,0.3,0,0.6,0,0.9c0,1.1,0,2.2,0.2,3.3c0.3,1.4,1.1,2.9,2.2,3.9
	c0.6,0.6,1.2,1,1.9,1.4c0.1,0,0.3,0.1,0.4,0.2c0.3,0.1,0.6,0.3,0.9,0.3l0.2,0c0.3,0.1,0.6,0.1,1,0.2c0.2,0,0.5,0.1,0.7,0.1l0.3,0.1
	c0.2,0.1,0.4,0.1,0.9,0.1h47.5c1.1,0,2.3-0.3,3.7-0.9c1.3-0.6,2.5-1.8,3.2-3.2c0.7-1.2,1-2.5,1-3.8v-6.7
	C63.9,46.1,63.9,42.9,63.9,39.7z"/>
</svg>
