<svg xmlns="http://www.w3.org/2000/svg" viewBox="0 0 64 64" [attr.width]="width" [attr.height]="height">
<path d="M29.9,30.9c0,0.7-0.3,1.5-0.8,2L17.1,44.7c-0.5,0.5-1.2,0.8-2,0.8c0,0,0,0,0,0c-0.7,0-1.4-0.3-2-0.8c-1.1-1.1-1.1-2.9,0-4
	l9.9-9.9l-9.9-9.9c-1.1-1.1-1.1-2.9,0-4c1.1-1.1,2.9-1.1,4,0L29,28.9C29.6,29.4,29.8,30.1,29.9,30.9z M50.3,40H32.6
	c-1.5,0-2.8,1.3-2.8,2.8c0,1.5,1.3,2.8,2.8,2.8h17.7c1.5,0,2.8-1.3,2.8-2.8C53.1,41.2,51.8,40,50.3,40z M64,9.2v45.6
	c0,5.1-4.1,9.2-9.2,9.2H9.2C4.1,64,0,59.9,0,54.8V9.2C0,4.1,4.1,0,9.2,0h45.6C59.9,0,64,4.1,64,9.2z M58.6,9.2
	c0-2.1-1.7-3.8-3.8-3.8H9.2c-2.1,0-3.8,1.7-3.8,3.8v45.6c0,2.1,1.7,3.8,3.8,3.8h45.6c2.1,0,3.8-1.7,3.8-3.8V9.2z"/>
</svg>
