<svg xmlns="http://www.w3.org/2000/svg" viewBox="0 0 64 64" [attr.width]="width" [attr.height]="height">
<path d="M62.3,14.3L52.6,2.7C51.2,1,49.1,0,46.9,0H7.4C3.3,0,0,3.3,0,7.4v49.2c0,2,0.8,3.8,2.2,5.2C3.5,63.2,5.4,64,7.4,64h49.2
	c2,0,3.8-0.8,5.2-2.2c1.4-1.4,2.2-3.3,2.2-5.2c0-10.7,0-30.7,0-37.6C64,17.3,63.4,15.6,62.3,14.3z M19.7,4.9h19.7v7.4H19.7V4.9z
	 M49.2,59.1H14.8V39.4c0-1.4,1.1-2.5,2.5-2.5h29.5c1.4,0,2.5,1.1,2.5,2.5V59.1z M59.1,56.6c0,0.7-0.3,1.3-0.7,1.7
	c-0.5,0.5-1.1,0.7-1.7,0.7h-2.5V39.4c0-4.1-3.3-7.4-7.4-7.4c-8.5,0-21,0-29.5,0c-4.1,0-7.4,3.3-7.4,7.4v19.7H7.4
	c-0.7,0-1.3-0.3-1.7-0.7c-0.5-0.5-0.7-1.1-0.7-1.7V7.4C4.9,6,6,4.9,7.4,4.9h7.4v7.4c0,2.7,2.2,4.9,4.9,4.9h19.7
	c2.7,0,4.9-2.2,4.9-4.9V4.9h2.6c0.7,0,1.4,0.3,1.9,0.9l9.7,11.6c0.4,0.4,0.6,1,0.6,1.6V56.6z M44.3,43.1c0,1.4-1.1,2.5-2.5,2.5H22.2
	c-1.4,0-2.5-1.1-2.5-2.5c0-1.4,1.1-2.5,2.5-2.5h19.7C43.2,40.6,44.3,41.7,44.3,43.1z M44.3,52.9c0,1.4-1.1,2.5-2.5,2.5H22.2
	c-1.4,0-2.5-1.1-2.5-2.5c0-1.4,1.1-2.5,2.5-2.5h19.7C43.2,50.5,44.3,51.6,44.3,52.9z"/>
</svg>
