<svg xmlns="http://www.w3.org/2000/svg" viewBox="0 0 64 64" [attr.width]="width" [attr.height]="height">
    <path d="M31,63C13.4,63-1,48.6-1,31C-1,17.7,7,6,19.4,1.2c1.4-0.5,2.9,0.1,3.5,1.5c0.5,1.4-0.1,2.9-1.5,3.5c-10.3,4-17,13.8-17,24.8
        c0,14.7,12,26.7,26.7,26.7s26.6-12,26.6-26.7c0-11.1-6.7-20.8-17-24.8c-1.4-0.5-2.1-2.1-1.5-3.5c0.5-1.4,2.1-2.1,3.5-1.5
        C55,6,63,17.7,63,31C63,48.6,48.6,63,31,63z M31,15c-1.5,0-2.7,1.2-2.7,2.7v20.2l-3.4-3.4c-1-1-2.7-1-3.8,0
        c-0.5,0.5-0.8,1.2-0.8,1.9s0.3,1.4,0.8,1.9l8,8c0.2,0.2,0.5,0.4,0.8,0.6l0,0l0,0c0.4,0.2,0.9,0.2,1.4,0.1c0.1,0,0.2,0,0.3-0.1
        c0.4-0.1,0.9-0.3,1.2-0.7l8-8c1-1,1-2.7,0-3.8c-1-1-2.7-1-3.8,0l-3.4,3.4V17.6C33.7,16.2,32.5,15,31,15z"/>
</svg>
