<svg xmlns="http://www.w3.org/2000/svg" viewBox="0 0 64 64" [attr.width]="width" [attr.height]="height">
<path d="M63.8,30.8l-15-26.2c-0.3-1-0.9-1.4-2-1.4H17.2c-1.1,0-1.7,0.4-2.4,1.4L0.2,30.8c-0.3,0.7-0.3,1.7,0,2.4l15,26.1
	c0.3,1,0.9,1.4,2,1.4h29.6c0.7,0,1.7-0.4,2.4-1l14.5-26.1C64.1,32.6,64.1,31.5,63.8,30.8z M58.2,32.1L45.1,55.6H18.5l-0.1-0.3
	L5.3,32.2L5.4,32L18.5,8h26.5l13.2,23.8L58.2,32.1z M35,47.6c0,1.6-1.2,3.2-3.2,3.2c-1.6-0.4-2.8-1.6-2.8-3.2c0-1.6,1.2-3.2,2.8-3.2
	S35,45.6,35,47.6z M35,16v20.3c0,1.6-1.2,3.2-3.2,3.2S29,37.9,29,36.2V16c0-2,1.2-3.2,2.8-3.2S35,14,35,16z"/>
</svg>
