<svg xmlns="http://www.w3.org/2000/svg" viewBox="0 0 50.663 64" [attr.width]="width" [attr.height]="height">
<path d="M50.08,10.586A1.986,1.986,0,0,0,48.671,10H47.33V1.993A2,2,0,0,0,45.337,0H6.994A7,7,0,0,0,0,6.994V57.006A7,7,0,0,0,6.994,64H48.671a2,2,0,0,0,1.992-1.993V12A1.98,1.98,0,0,0,50.08,10.586ZM6.994,3.985h36.35V10H6.994a3.009,3.009,0,0,1,0-6.017Zm39.684,56.03H6.994a3.012,3.012,0,0,1-3.008-3.009V13.349l.677.239a6.974,6.974,0,0,0,2.331.4H46.678ZM16.35,39.408H34.314A5,5,0,0,0,39.3,34.419V25.576a5,5,0,0,0-4.989-4.989H16.35a5,5,0,0,0-4.989,4.989v8.843A5,5,0,0,0,16.35,39.408ZM14.976,25.576A1.378,1.378,0,0,1,16.35,24.2H34.314a1.378,1.378,0,0,1,1.374,1.374v8.843a1.378,1.378,0,0,1-1.374,1.374H16.35a1.378,1.378,0,0,1-1.374-1.374Z"/>
</svg>
