<svg xmlns="http://www.w3.org/2000/svg" viewBox="0 0 50.9 64" [attr.width]="width" [attr.height]="height">
<path d="M29.5,45.1V28.7c0-1.4,1.1-2.5,2.5-2.5c1.4,0,2.5,1.1,2.5,2.5v16.4c0,1.4-1.1,2.5-2.5,2.5C30.6,47.6,29.5,46.5,29.5,45.1z
	 M50.9,12.3c0,1.4-1.1,2.5-2.5,2.5h-0.8V55c0,5-4,9-9,9H12.3c-5,0-9-4-9-9V14.8H2.5c-1.4,0-2.5-1.1-2.5-2.5s1.1-2.5,2.5-2.5h10.7V9
	c0-5,4-9,9-9h6.6c5,0,9,4,9,9v0.8h10.7C49.8,9.8,50.9,10.9,50.9,12.3z M18.1,9.8h14.8V9c0-2.3-1.8-4.1-4.1-4.1h-6.6
	c-2.3,0-4.1,1.8-4.1,4.1V9.8z M42.7,14.8H8.2V55c0,2.3,1.8,4.1,4.1,4.1h26.3c2.3,0,4.1-1.8,4.1-4.1V14.8z M18.9,47.6
	c1.4,0,2.5-1.1,2.5-2.5V28.7c0-1.4-1.1-2.5-2.5-2.5s-2.5,1.1-2.5,2.5v16.4C16.4,46.5,17.5,47.6,18.9,47.6z"/>
</svg>
