<svg xmlns="http://www.w3.org/2000/svg" viewBox="0 0 64 64" [attr.width]="width" [attr.height]="height">
<path d="M50.4,45.6c0,1.1-0.9,2-2,2H32c-1.1,0-2-0.9-2-2s0.9-2,2-2h16.3C49.5,43.6,50.4,44.5,50.4,45.6z M22.5,14.2l-4,4l-1.3-1.3
	c-0.8-0.8-2.1-0.8-2.9,0s-0.8,2.1,0,2.9l2.9,2.7c0.3,0.4,0.9,0.6,1.4,0.6s1-0.2,1.4-0.6l5.4-5.4c0.8-0.8,0.8-2.1,0-2.9
	C24.5,13.4,23.2,13.4,22.5,14.2z M22.5,27.8l-4,4l-1.3-1.3c-0.8-0.8-2.1-0.8-2.9,0c-0.8,0.8-0.8,2.1,0,2.9l2.9,2.7
	c0.3,0.4,0.9,0.6,1.4,0.6s1-0.2,1.4-0.6l5.4-5.4c0.8-0.8,0.8-2.1,0-2.9C24.5,27,23.2,27,22.5,27.8z M22.5,41.4l-4,4l-1.3-1.3
	c-0.8-0.8-2.1-0.8-2.9,0c-0.4,0.3-0.6,0.9-0.6,1.4s0.2,1,0.6,1.4l2.7,2.7c0.3,0.4,0.9,0.6,1.4,0.6s1-0.2,1.4-0.6l5.4-5.4
	c0.4-0.3,0.6-0.9,0.6-1.4s-0.2-1-0.6-1.4C24.5,40.7,23.2,40.7,22.5,41.4z M58.5,7.5v49c0,4.1-3.4,7.5-7.5,7.5H13
	c-4.1,0-7.5-3.4-7.5-7.5v-49C5.5,3.4,8.9,0,13,0H51C55.2,0,58.5,3.4,58.5,7.5z M54.5,7.5c0-1.9-1.5-3.4-3.4-3.4H13
	c-1.9,0-3.4,1.5-3.4,3.4v49c0,1.9,1.5,3.4,3.4,3.4H51c1.9,0,3.4-1.5,3.4-3.4V7.5z M48.4,30H32c-1.1,0-2,0.9-2,2c0,1.1,0.9,2,2,2
	h16.3c1.1,0,2-0.9,2-2C50.4,30.9,49.5,30,48.4,30z M48.4,16.4H32c-1.1,0-2,0.9-2,2c0,1.1,0.9,2,2,2h16.3c1.1,0,2-0.9,2-2
	C50.4,17.3,49.5,16.3,48.4,16.4z"/>
</svg>
